<?xml version="1.0" encoding="utf-8"?>
<svg xmlns="http://www.w3.org/2000/svg" xmlns:svg="http://www.w3.org/2000/svg" version="1.1" viewBox="0 0 1400 340">
	<title>The titlepage for the Standard Ebooks edition of Short Fiction, by Mack Reynolds</title>
	<g aria-label="SHORT FICTION">
		<path d="m 326.86549,1746.4035 c -12.44444,0 -25.16959,9.1696 -25.16959,23.579 0,8.0467 5.4269,15.2514 14.69006,19.8362 9.16959,4.5848 17.40351,7.1111 17.40351,12.7252 0,7.2046 -7.29825,7.5789 -11.13451,7.5789 -8.60818,0 -18.90058,-8.7017 -18.90058,-8.7017 l -8.79532,14.7836 c 0,0 10.94737,10.1988 29.00585,10.1988 15.06432,0 29.09941,-6.4561 29.09941,-24.8889 0,-10.1052 -9.45029,-17.4035 -18.05848,-21.0526 -8.79532,-3.7427 -16.09357,-6.8304 -16.09357,-11.1345 0,-4.2105 3.18129,-6.924 9.1696,-6.924 7.95321,0 15.62573,5.3333 15.62573,5.3333 l 7.11111,-14.035 c 0,0 -9.91813,-7.2983 -23.95322,-7.2983 z"/>
		<path d="m 383.87718,1794.0292 h 24.88889 V 1825 h 17.59065 v -77.193 h -17.59065 v 30.7836 H 383.87718 V 1747.807 H 366.28654 V 1825 h 17.59064 z"/>
		<path d="m 439.09649,1786.3567 c 0,22.5497 16.09357,40.0468 38.92398,40.0468 22.17544,0 38.83041,-17.4971 38.83041,-40.0468 0,-22.5497 -17.40351,-39.9532 -38.83041,-39.9532 -21.23977,0 -38.92398,17.4035 -38.92398,39.9532 z m 18.99416,0 c 0,-11.5087 6.36257,-23.0175 19.92982,-23.0175 13.66082,0 19.83626,11.5088 19.83626,23.0175 0,11.5088 -5.80117,23.0176 -19.83626,23.0176 -14.40936,0 -19.92982,-11.5088 -19.92982,-23.0176 z"/>
		<path d="M 529.61257,1747.807 V 1825 h 17.59065 v -30.5029 L 570.78217,1825 h 22.36257 l -26.5731,-31.9064 c 9.45029,-2.9942 15.81287,-10.7603 15.81287,-22.3626 0,-15.1579 -10.85381,-22.924 -25.1696,-22.924 z m 17.59065,34.2456 v -20.2105 h 2.05848 c 6.64327,0 14.59649,0.4678 14.59649,10.1053 0,9.6374 -7.95322,10.1052 -14.59649,10.1052 z"/>
		<path d="m 593.1608,1763.2456 h 18.33919 V 1825 h 17.59064 v -61.7544 h 18.33918 V 1747.807 H 593.1608 Z"/>
		<path d="M 733.981,1747.807 H 689.34942 V 1825 h 17.59064 v -30.9708 h 24.98246 v -15.4386 h -24.98246 v -15.345 H 733.981 Z"/>
		<path d="M 764.93714,1747.807 H 747.34649 V 1825 h 17.59065 z"/>
		<path d="m 819.3728,1809.0936 c -17.68421,0 -25.45029,-12.3509 -25.45029,-22.7369 0,-10.2924 7.76608,-22.6433 25.45029,-22.6433 8.98246,0 15.1579,4.772 15.1579,4.772 l 7.48538,-14.9708 c 0,0 -8.60819,-7.1111 -25.35673,-7.1111 -21.89473,0 -41.82456,17.9649 -41.82456,40.1404 0,22.0818 20.02339,39.8596 41.82456,39.8596 16.74854,0 25.35673,-7.1111 25.35673,-7.1111 l -7.48538,-14.9708 c 0,0 -6.17544,4.772 -15.1579,4.772 z"/>
		<path d="m 848.97224,1763.2456 h 18.33918 V 1825 h 17.59064 v -61.7544 h 18.33918 v -15.4386 h -54.269 z"/>
		<path d="M 932.16666,1747.807 H 914.57601 V 1825 h 17.59065 z"/>
		<path d="m 944.98829,1786.3567 c 0,22.5497 16.09357,40.0468 38.92398,40.0468 22.17543,0 38.83043,-17.4971 38.83043,-40.0468 0,-22.5497 -17.4035,-39.9532 -38.83043,-39.9532 -21.23977,0 -38.92398,17.4035 -38.92398,39.9532 z m 18.99416,0 c 0,-11.5087 6.36257,-23.0175 19.92982,-23.0175 13.66082,0 19.83623,11.5088 19.83623,23.0175 0,11.5088 -5.80114,23.0176 -19.83623,23.0176 -14.40936,0 -19.92982,-11.5088 -19.92982,-23.0176 z"/>
		<path d="m 1053.095,1777.0936 h 0.1871 L 1083.9722,1825 h 17.5906 v -77.193 h -17.5906 v 47.9064 h -0.1871 l -30.6901,-47.9064 h -17.5906 V 1825 h 17.5906 z"/>
	</g>
	<g aria-label="MACK REYNOLDS">
		<path d="m 399.15351,1925 h 13.19298 l -5.19298,-57.8947 h -14.03509 l -12.8421,33.4035 -12.84211,-33.4035 H 353.39913 L 348.20614,1925 h 13.19299 l 2.73684,-34.3158 h 0.35088 l 11.85964,33.9649 h 7.85965 l 11.85965,-33.9649 h 0.35088 z"/>
		<path d="M 452.03509,1867.1053 H 439.82456 L 416.45614,1925 h 14.17544 l 4.2807,-11.5789 h 22.03509 l 4.2807,11.5789 h 14.17544 z m 0.42105,34.7368 H 439.40351 L 445.85965,1885 H 446 Z"/>
		<path d="m 511.20723,1913.0702 c -13.26315,0 -19.08772,-9.2632 -19.08772,-17.0527 0,-7.7193 5.82457,-16.9824 19.08772,-16.9824 6.73685,0 11.36842,3.5789 11.36842,3.5789 l 5.61404,-11.228 c 0,0 -6.45614,-5.3334 -19.01754,-5.3334 -16.42106,0 -31.36842,13.4737 -31.36842,30.1053 0,16.5614 15.01754,29.8947 31.36842,29.8947 12.5614,0 19.01754,-5.3333 19.01754,-5.3333 l -5.61404,-11.2281 c 0,0 -4.63157,3.579 -11.36842,3.579 z"/>
		<path d="m 591.00767,1925 -26.94737,-30.4561 23.29825,-27.4386 h -16 l -19.85965,23.6491 v -23.6491 H 538.30592 V 1925 h 13.19298 v -24.5614 L 572.83223,1925 Z"/>
		<path d="M 622.73026,1867.1053 V 1925 h 13.19299 v -22.8772 L 653.60746,1925 h 16.77193 l -19.92983,-23.9298 c 7.08772,-2.2456 11.85965,-8.0702 11.85965,-16.772 0,-11.3684 -8.14035,-17.1929 -18.87719,-17.1929 z m 13.19299,25.6842 v -15.1579 h 1.54386 c 4.98245,0 10.94736,0.3509 10.94736,7.5789 0,7.2281 -5.96491,7.579 -10.94736,7.579 z"/>
		<path d="m 711.15458,1867.1053 h -33.1228 V 1925 h 33.1228 v -11.5789 h -19.92982 v -11.6492 h 19.08772 v -11.5789 h -19.08772 v -11.5088 h 19.92982 z"/>
		<path d="m 717.42323,1867.1053 21.33334,31.9298 V 1925 h 13.19298 v -25.9649 l 21.33333,-31.9298 h -15.85965 l -12.07017,18.5263 -12.07018,-18.5263 z"/>
		<path d="m 793.60415,1889.0702 h 0.14036 L 816.76205,1925 h 13.19298 v -57.8947 h -13.19298 v 35.9298 h -0.14035 l -23.01755,-35.9298 H 780.41117 V 1925 h 13.19298 z"/>
		<path d="m 840.79167,1896.0175 c 0,16.9123 12.07018,30.0351 29.19298,30.0351 16.63158,0 29.12281,-13.1228 29.12281,-30.0351 0,-16.9122 -13.05263,-29.9649 -29.12281,-29.9649 -15.92982,0 -29.19298,13.0527 -29.19298,29.9649 z m 14.24561,0 c 0,-8.6315 4.77193,-17.2631 14.94737,-17.2631 10.24562,0 14.8772,8.6316 14.8772,17.2631 0,8.6316 -4.35088,17.2632 -14.8772,17.2632 -10.80701,0 -14.94737,-8.6316 -14.94737,-17.2632 z"/>
		<path d="M 923.12173,1867.1053 H 909.92875 V 1925 h 33.12281 v -11.5789 h -19.92983 z"/>
		<path d="M 954.53947,1867.1053 V 1925 h 16.77193 c 15.92982,0 29.193,-12.0702 29.193,-28.9825 0,-16.8421 -13.33335,-28.9122 -29.193,-28.9122 z m 13.19298,46.1052 v -34.3158 h 2.03509 c 9.82456,0 16.49123,7.5088 16.49123,17.193 -0.0702,9.6842 -6.73685,17.1228 -16.49123,17.1228 z"/>
		<path d="m 1031.3114,1866.0526 c -9.3333,0 -18.8772,6.8772 -18.8772,17.6842 0,6.0351 4.0702,11.4386 11.0176,14.8772 6.8771,3.4386 13.0526,5.3334 13.0526,9.5439 0,5.4035 -5.4737,5.6842 -8.3509,5.6842 -6.4561,0 -14.1754,-6.5263 -14.1754,-6.5263 l -6.5965,11.0877 c 0,0 8.2105,7.6491 21.7544,7.6491 11.2982,0 21.8245,-4.8421 21.8245,-18.6666 0,-7.579 -7.0877,-13.0527 -13.5438,-15.7895 -6.5965,-2.807 -12.0702,-5.1228 -12.0702,-8.3509 0,-3.1579 2.386,-5.193 6.8772,-5.193 5.9649,0 11.7193,4 11.7193,4 l 5.3333,-10.5263 c 0,0 -7.4386,-5.4737 -17.9649,-5.4737 z"/>
	</g>
</svg>
